<svg xmlns="http://www.w3.org/2000/svg" viewBox="0 0 64 64" width="64" height="64"><g class="nc-icon-wrapper" fill="#676767"><path d="M18 43V5a1 1 0 0 0-1-1H3a1 1 0 0 0-1 1v38h16zM9 16a1 1 0 1 1 2 0v12a1 1 0 1 1-2 0V16z"/><path data-color="color-2" d="M2 45v16a1 1 0 0 0 1 1h14a1 1 0 0 0 1-1V45H2z"/><path d="M37 43V5a1 1 0 0 0-1-1H22a1 1 0 0 0-1 1v38h16zm-9-27a1 1 0 1 1 2 0v12a1 1 0 1 1-2 0V16z"/><path data-color="color-2" d="M21 45v16a1 1 0 0 0 1 1h14a1 1 0 0 0 1-1V45H21z"/><path d="M57.941 40.48L50.728 3.171a.998.998 0 0 0-1.172-.792L35.81 5.037a1 1 0 0 0-.792 1.171l7.214 37.31 15.709-3.038zm-13.17-25.972a.998.998 0 0 1 1.172.792l2.278 11.782a1 1 0 0 1-1.964.379l-2.278-11.782a1 1 0 0 1 .792-1.171z"/><path data-color="color-2" d="M42.611 45.481l3.037 15.709a1.001 1.001 0 0 0 1.172.791l13.746-2.657a1 1 0 0 0 .792-1.171l-3.037-15.71-15.71 3.038z"/></g></svg>