<svg xmlns="http://www.w3.org/2000/svg" viewBox="0 0 64 64" width="64" height="64"><g class="nc-icon-wrapper" fill="#676767"><path d="M39.707 38.293L51 49.586l9.293-9.293A1 1 0 0 1 62 41v20a1 1 0 0 1-1 1H40.98a1 1 0 0 1-.578-1.816L49.586 51 38.293 39.707a.999.999 0 1 1 1.414-1.414zM3 2h20a1 1 0 0 1 .707 1.707L14.414 13l11.293 11.293a.999.999 0 1 1-1.414 1.414L13 14.414l-9.293 9.293A1 1 0 0 1 2 23V3a1 1 0 0 1 1-1z"/><path data-color="color-2" d="M24.293 38.293L13 49.586l-9.293-9.293A1 1 0 0 0 2 41v20a1 1 0 0 0 1 1h20.02a1 1 0 0 0 .578-1.816L14.414 51l11.293-11.293a.999.999 0 1 0-1.414-1.414zM61 2H41a1 1 0 0 0-.707 1.707L49.586 13 38.293 24.293a.999.999 0 1 0 1.414 1.414L51 14.414l9.293 9.293A1 1 0 0 0 62 23V3a1 1 0 0 0-1-1z"/></g></svg>