<svg class="nc-icon outline" xmlns="http://www.w3.org/2000/svg" width="48" height="48" viewBox="0 0 48 48"><g fill="none" stroke="#444" stroke-width="2" stroke-linecap="square" stroke-miterlimit="10"><path d="M20 41.672c0-1.208-.529-2.357-1.476-3.108C17.078 37.416 14.57 36 11 36s-6.078 1.416-7.524 2.564C2.529 39.315 2 40.464 2 41.672V44h18v-2.328z"/><circle cx="11" cy="26" r="5"/><path d="M46 41.672c0-1.208-.529-2.357-1.476-3.108C43.078 37.416 40.57 36 37 36s-6.078 1.416-7.524 2.564c-.947.751-1.476 1.9-1.476 3.108V44h18v-2.328z"/><circle cx="37" cy="26" r="5"/><path data-color="color-2" d="M24 4v12m-6-6h12"/></g></svg>