<svg id="Group_2" data-name="Group 2" xmlns="http://www.w3.org/2000/svg" viewBox="290 230 280.089 340"><defs><style>.cls-1,.cls-2{fill:#ff4848;fill-rule:evenodd}.cls-2{fill:#fff}</style></defs><path id="Path_3" data-name="Path 3" class="cls-1" d="M281 140s-60 62.4-60 120c0 38.879 20 70 20 70 0 8.1-10 10-10 10-26.02-17.77-53.433-20.391-70-19.938a20 20 0 0 1-39.994 0c-16.57-.453-43.983 2.168-70 19.938 0 0-10-1.9-10-10 0 0 20-31.121 20-70C61 202.4 1 140 1 140a6.562 6.562 0 0 1 3.639-6.729c13.243-5.249 74.014-6.924 116.361 16.138v-14.784a39.979 39.979 0 0 1-.576-68.919C115.544 7.654 81 10 81 10V0c39.885 0 48.582 37.593 50.108 61.238a40.139 40.139 0 0 1 19.784 0C152.418 37.593 161.114 0 201 0v10s-34.544-2.346-39.424 55.706a39.979 39.979 0 0 1-.576 68.919v14.784c42.347-23.062 103.118-21.387 116.361-16.138A6.562 6.562 0 0 1 281 140z" transform="translate(289.044 230)"/><path id="Path_4" data-name="Path 4" class="cls-2" d="M241 170s-60 0-89.88 19.945L151 180c.014.268 20-20 89.989-20-.033.812.011 10 .011 10zm0-10h-.011c.003-.076.006-.084.011 0zM71 300s14.377-10 60-10v10s-30 0-60 10zm10-40l.081-9.986C121 250 131 260 131 260l-.134 9.875C111 260 80.976 261.495 81 260zm-20-50l.081-9.986C111 200 131 220 131 220l-.134 9.875C101 210 60.976 211.495 61 210zm-20-40s.044-9.188.011-10C111 160 130.986 180.268 131 180l-.12 9.945C101 170 41 170 41 170zm.011-10H41c0-.084.008-.076.011 0zm179.908 40.014L221 210c.024 1.495-40 0-69.866 19.875L151 220s20-20 69.919-19.986zm-20 50L201 260c.024 1.495-30 0-49.866 9.875L151 260s10-10 49.919-9.986zM211 310c-30-10-60-10-60-10v-10c45.623 0 60 10 60 10z" transform="translate(289.044 230)"/></svg>