<svg class="nc-icon outline" xmlns="http://www.w3.org/2000/svg" width="48" height="48" viewBox="0 0 48 48"><g fill="none" stroke="#444" stroke-width="2" stroke-linecap="square" stroke-miterlimit="10"><path d="M46 28v-8h-4.11a3.366 3.366 0 0 1-3.112-2.097c-.574-1.392-.218-2.805.701-3.724l2.907-2.907-5.657-5.657-2.907 2.907c-.919.919-2.332 1.275-3.724.701A3.367 3.367 0 0 1 28 6.11V2h-8v4.11a3.366 3.366 0 0 1-2.097 3.112c-1.392.574-2.805.218-3.724-.701l-2.907-2.907-5.657 5.657 2.907 2.907c.919.919 1.275 2.332.701 3.724A3.367 3.367 0 0 1 6.11 20H2v8h4.11c1.293 0 2.55.743 3.129 2.138a3.367 3.367 0 0 1-.718 3.683l-2.907 2.907 5.657 5.657 2.907-2.907a3.367 3.367 0 0 1 3.683-.718c1.391.578 2.139 1.832 2.139 3.13V46h8v-4.11c0-1.293.743-2.55 2.138-3.129a3.367 3.367 0 0 1 3.683.718l2.907 2.907 5.657-5.657-2.907-2.907c-.919-.919-1.275-2.332-.701-3.724A3.368 3.368 0 0 1 41.89 28H46z"/><circle data-color="color-2" cx="24" cy="24" r="6"/></g></svg>