<svg width="14" height="12" viewBox="0 0 14 12" xmlns="http://www.w3.org/2000/svg"><title>Shape</title><path d="M2.646 2.679C1.609 3.975 1.459 5.28 1.764 6.195c1.151-.914 2.751-.723 3.726.188.984.92 1.069 2.536.44 3.582a2.88 2.88 0 0 1-2.49 1.411C1.082 11.376 0 9.298 0 6.966 0 5.454.386 4.098 1.157 2.9 1.93 1.701 3.094.735 4.652 0l.419.816c-.94.397-1.75 1.018-2.425 1.863zm7.672 0C9.281 3.975 9.132 5.28 9.436 6.195c.515-.397 1.073-.595 1.676-.595C12.697 5.6 14 6.656 14 8.488c0 1.685-1.293 2.888-2.888 2.888-2.356 0-3.44-2.078-3.44-4.41 0-1.513.386-2.869 1.158-4.067C9.602 1.701 10.766.735 12.324 0l.42.816c-.941.397-1.75 1.018-2.426 1.863z" fill="#0766B4" fill-rule="evenodd"/></svg>